<svg xmlns="http://www.w3.org/2000/svg" id="vector" viewBox="0 0 64 64"><path id="path" fill="#ebebeb" d="M 39.3 41.3 C 39.2 41.9 39 42.4 38.8 42.9 C 38.7 43.1 38.7 43.2 38.7 43.4 C 38.3 43.8 38.1 44 38 44 C 36.1 45.7 34.5 46.5 32.2 47.3 C 31.3 47.6 29.5 48.1 27.2 48 L 23.6 50 C 28 51 31.6 50.1 33 49.6 C 35.6 48.7 37.4 47.7 39.6 45.8 C 40 45.4 42.3 43.4 43.9 40.1 C 44.2 39.5 44.5 38.9 44.7 38.2 L 39.3 41.3"/><path id="path_1" fill="#ebebeb" d="M 313.96 399.619 C 314.02 399.619 314.14 399.619 314.2 399.619 C 314.32 399.619 314.5 399.619 314.62 399.619 C 314.38 399.558 314.14 399.496 313.9 399.373 L 315.82 398.262 C 317.32 398.323 318.88 397.583 319.9 396.472 C 319.66 396.472 319.42 396.41 319.18 396.349 L 322.42 394.497 C 322.42 394.559 322.42 394.559 322.42 394.62 C 322.54 394.559 322.66 394.435 322.78 394.312 L 324.94 393.078 C 324.94 393.139 324.88 393.263 324.88 393.325 C 324.88 393.386 324.82 393.448 324.82 393.448 C 324.82 393.51 324.76 393.571 324.76 393.695 C 324.16 395.608 322.96 397.212 321.4 398.509 C 321.34 398.57 321.34 398.632 321.28 398.694 C 318.94 400.607 316.6 401.039 315.4 401.162 C 315.34 401.162 315.28 401.162 315.22 401.162 C 314.5 401.224 313.78 401.224 313.06 401.101 C 313 401.101 313 401.101 312.94 401.101 C 312.64 401.039 312.34 400.977 312.16 400.977 C 311.98 400.915 311.8 400.854 311.62 400.854 L 313.6 399.681 C 313.72 399.619 313.84 399.619 313.96 399.619"/><path id="path_2" fill="#ebebeb" d="M 305.5 385.672 C 305.2 386.474 304.96 387.524 304.9 387.894 C 304.78 388.82 304.78 388.82 304.78 389.745 C 304.78 390.054 304.78 390.486 304.84 390.794 C 304.96 391.535 305.08 392.337 305.5 393.448 L 305.5 396.472 C 305.14 395.978 304.84 395.423 304.54 394.867 C 303.76 393.201 303.52 391.967 303.4 391.103 C 303.46 390.609 303.4 390.115 303.4 389.745 C 303.4 388.758 303.4 388.758 303.52 387.709 C 303.58 387.091 303.88 385.734 304.3 384.746 C 304.6 384.006 304.96 383.389 305.32 382.833 C 305.38 382.772 305.38 382.71 305.44 382.648 C 305.5 382.586 305.56 382.525 305.56 382.463 L 305.56 385.796 C 305.56 385.796 305.56 385.734 305.5 385.672"/><path id="path_3" fill="#ebebeb" d="M 39.9 28.9 C 39.7 29.3 39.4 29.6 39.1 30 C 40 31.7 40.7 33.4 41.1 35 C 41.3 34.8 41.5 34.5 41.6 34.2 C 43 31.8 43.3 28.8 42.3 25.8 C 42.2 25.7 42.2 25.6 42.1 25.5 C 42 25.2 41.9 25 41.8 24.8 C 41.7 24.7 41.6 24.6 41.5 24.4 C 41.4 24.2 41.3 24 41.1 23.8 L 40.6 23.5 C 41.1 25.4 40.8 27.3 39.9 28.9"/><path id="path_4" fill="#ebebeb" d="M 25.4 15.3 C 25.3 15.3 25.3 15.3 25.2 15.3 C 24.4 15.4 23.6 15.6 22.9 15.9 C 23.5 16 24.1 16.3 24.8 16.5 C 25.3 16.1 25.9 15.9 26.4 15.6 L 25.8 15.3 C 25.8 15.3 25.6 15.3 25.4 15.3"/><path id="path_5" fill="#ebebeb" d="M 44.6 38.4 L 56 32 L 44.9 25.8 C 46.5 30.8 45.8 35.2 44.6 38.4"/><path id="path_6" fill="#ebebeb" d="M 28.9 17.4 L 28.9 17.4 C 28.4 17.5 28 17.6 27.6 17.7 C 29.1 18.6 30.7 19.8 32.2 21.2 C 33.3 20.9 34.3 20.6 35.2 20.5 L 29.6 17.4 C 29.5 17.4 29.2 17.4 28.9 17.4"/><path id="path_7" fill="#ebebeb" d="M 34.3 41.5 C 28 42.4 21.3 39.4 17.3 34.3 C 15.8 36.1 14.8 37.9 14.4 39.6 C 14.3 40.2 14.2 40.8 14.3 41.3 C 14.6 41.7 14.8 42 15.2 42.4 C 16.1 43.5 18.7 46.2 22.9 47.5 C 24.4 47.9 25.8 48.1 27 48.2 L 39.2 41.4 C 39.3 40.9 39.4 40.4 39.4 39.8 C 37.9 40.6 36.2 41.2 34.3 41.5"/><path id="path_8" fill="#ebebeb" d="M 17.7 30.3 C 19.1 28.8 20.8 27.4 22.6 26.2 C 22.5 25.9 22.4 25.7 22.3 25.4 C 22.3 25.4 22.3 25.4 22.3 25.4 C 21.5 23.1 21.7 20.7 22.9 18.8 C 23 18.7 23.1 18.6 23.1 18.5 C 21.8 18.1 20.6 18 19.5 18.1 C 18.8 18.7 18.2 19.4 17.8 20.2 C 16.9 21.7 16.5 23.3 16.5 25.1 C 16.5 26.3 16.7 27.6 17.1 28.8 C 17.2 29.3 17.4 29.8 17.7 30.3"/><path id="path_9" fill="#ebebeb" d="M 24.5 24.5 C 24.5 24.6 24.6 24.7 24.6 24.8 C 26.2 23.8 27.9 22.9 29.7 22.2 C 28.2 21 26.8 20 25.4 19.3 C 25.2 19.5 25 19.7 24.9 20 C 24.1 21.3 23.9 22.9 24.5 24.5 L 24.5 24.5"/><path id="path_10" fill="#ebebeb" d="M 33.8 30.2 C 34.6 30.1 35.4 29.8 36 29.5 C 34.8 27.6 33.4 25.7 31.7 24.1 C 31.4 24.2 31.1 24.3 30.8 24.4 C 29.1 25.1 27.4 26 25.8 27 C 27.7 29.2 30.8 30.6 33.8 30.2"/><path id="path_11" fill="#ebebeb" d="M 18 15.4 C 19.3 14.7 20.5 14 22.6 13.4 L 12.7 7.9 L 12.7 20.4 C 14.9 17.2 17.6 15.6 18 15.4"/><path id="path_12" fill="#ebebeb" d="M 37.8 27.6 C 38.6 26.3 38.7 24.7 38.1 23 C 38.1 23 38.1 23 38.1 23 C 38 22.9 38 22.7 37.9 22.6 C 36.8 22.6 35.5 22.7 34.1 23.1 C 35.4 24.5 36.6 26.1 37.6 27.7 C 37.8 27.7 37.8 27.7 37.8 27.6"/><path id="path_13" fill="#ebebeb" d="M 34 39.1 C 36 38.8 37.7 38.1 39.2 37 C 38.8 35.3 38.2 33.4 37.2 31.5 C 36.3 32 35.3 32.4 34.1 32.6 C 30.3 33.1 26.2 31.3 23.9 28.3 C 22 29.6 20.4 31 19 32.5 C 22.3 37.1 28.3 39.9 34 39.1"/><path id="path_14" fill="#ebebeb" d="M 16 32.2 C 15.5 31.4 15.1 30.5 14.8 29.6 C 13.9 27.1 13.8 24.5 14.4 22.1 C 14 22.7 13.6 23.4 13.2 24.1 C 13 24.5 12.8 24.9 12.7 25.3 L 12.7 37.6 C 13.3 35.8 14.5 34 16 32.2"/><path id="path_15" fill="#ebebeb" d="M 42.5 37.2 C 42.3 37.5 42 37.8 41.7 38 C 41.7 38.3 41.8 38.6 41.8 38.9 C 42 38.4 42.3 37.8 42.5 37.2"/><path id="path_16" fill="#ebebeb" d="M 13.4 44 C 13.1 43.6 12.9 43.3 12.6 43 L 12.6 56.2 L 23.4 50.2 C 23 50.1 22.6 50 22.2 49.9 C 17.4 48.4 14.5 45.2 13.4 44"/></svg>