<svg xmlns="http://www.w3.org/2000/svg" xmlns:android="http://schemas.android.com/apk/res/android" width="108dp" height="108dp" viewportHeight="27.9" viewportWidth="25.52"><path fill="#0063a3" stroke-width="0" d="M9.39,10.49c0.84,-0.77 1.74,-1.47 2.69,-2.11 -0.87,-0.78 -1.88,-1.39 -2.97,-1.79 -0.8,1.21 -0.68,2.81 0.28,3.9ZM8.79,5.09h0c0.84,-0.59 1.82,-0.92 2.84,-0.94 -2.1,-0.35 -4.25,-0.11 -6.22,0.7 1.13,-0.13 2.28,-0.05 3.38,0.24ZM14.82,12.21h0c-0.51,-1.07 -1.16,-2.05 -1.93,-2.93 -0.96,0.63 -1.87,1.34 -2.72,2.11 1.28,1.11 3.07,1.42 4.65,0.82ZM16.17,16.94c-0.14,-1.22 -0.43,-2.41 -0.88,-3.55 -2.02,0.78 -4.3,0.37 -5.92,-1.06 -1.17,1.21 -2.23,2.52 -3.15,3.93 2.71,2.18 7.16,2.75 9.95,0.68ZM1.7,0v6.35c1.5,-1.6 3.45,-2.71 5.6,-3.17L1.7,0ZM19.88,10.76c0.67,2.09 0.66,4.33 -0.02,6.42l5.66,-3.22 -5.64,-3.2ZM19.86,17.18h0s0,0 0,0h0ZM4.18,6.32c-1.9,2.65 -1.01,6.52 1.19,8.95 0.94,-1.42 2.01,-2.74 3.2,-3.96 -1.22,-1.39 -1.45,-3.39 -0.57,-5.01 -1.26,-0.3 -2.57,-0.3 -3.82,0.02ZM15.78,11.5h0c0.93,-1.18 0.95,-2.83 0.04,-4.02 -0.7,0.28 -1.36,0.67 -1.96,1.14 0.75,0.88 1.4,1.84 1.92,2.88ZM13.05,7.68h-0.01c0.65,-0.47 1.36,-0.86 2.1,-1.15 -1.35,-1.29 -3.36,-1.62 -5.05,-0.82 1.09,0.48 2.1,1.14 2.96,1.97ZM22.32,21.51c0,-0.38 -0.26,-0.57 -0.7,-0.57h-0.71v1.85h0.38v-0.71h0.3l0.38,0.71h0.39l-0.41,-0.76c0.24,-0.06 0.39,-0.28 0.37,-0.52ZM21.59,21.8h0s-0.3,-0.01 -0.3,-0.01v-0.53h0.3c0.24,0 0.36,0.07 0.36,0.27s-0.12,0.27 -0.36,0.27ZM22.32,21.5s0,0 0,0c0,0 0,0 0,0h0ZM17.33,17.45h0.01c0.03,0.81 0,1.62 -0.12,2.41 1.48,-1.88 2.2,-4.25 2.01,-6.64 -0.15,1.58 -0.82,3.07 -1.9,4.23ZM4.74,16.42s0,0 0,0c0,0 0,0 0,0h0ZM21.58,20.24h0.01s-0.04,0.01 -0.04,0.01c-0.93,0 -1.69,0.76 -1.69,1.69v0.09c0.05,0.95 0.85,1.68 1.79,1.63 0.92,-0.04 1.64,-0.81 1.63,-1.73v-0.05c-0.02,-0.92 -0.78,-1.65 -1.7,-1.64ZM22.99,21.96c0,0.77 -0.64,1.39 -1.41,1.39s-1.39,-0.64 -1.38,-1.41c0,-0.77 0.64,-1.39 1.41,-1.38 0.75,0 1.36,0.61 1.38,1.37v0.03ZM4.74,16.43c-2.26,-2.25 -3.19,-5.52 -2.46,-8.63 -3.25,3.76 -3,9.4 0.56,12.86 0.44,-1.49 1.08,-2.92 1.9,-4.23ZM1.69,27.9l5.64,-3.2c-2.16,-0.46 -4.13,-1.57 -5.64,-3.19v6.39ZM17.6,9.21c0.17,1.29 -0.33,2.58 -1.33,3.41 0.42,1.03 0.72,2.09 0.91,3.19 1.34,-1.95 1.51,-4.49 0.42,-6.6ZM5.61,17.44c-0.83,1.33 -1.43,2.78 -1.78,4.3 3.55,2.63 8.42,2.54 11.87,-0.21 0.38,-0.98 0.56,-2.02 0.54,-3.07 -3.44,1.75 -7.58,1.36 -10.63,-1.02Z"/></svg>